# xmcd
# Copyright (C) 1995-1998 Ti Kan
#
# Track frame offsets:
#       150
#       24600
#       41700
#       56250
#       80925
#       100125
#       108635
#       120032
#       129809
#
# Disc length: 2029 seconds
#
# Revision: 0
# Processed by: cddbd v1.5.2PL0 Copyright (c) Steve Scherf et al.
# Submitted via: CD-Import v1.0
#
DISCID=6b07eb09
DTITLE=Wild Guy - Wild Guy
DYEAR=07
DGENRE=
TTITLE0=Love By You
TTITLE1=Zombie Night
TTITLE2=You Do Right!!!
TTITLE3=Burn The Party
TTITLE4=No More About You
TTITLE5=The Escape
TTITLE6=Allready Dead
TTITLE7=Wild Wild
TTITLE8=After The Attack
EXTD=
EXTT0=
EXTT1=
EXTT2=
EXTT3=
EXTT4=
EXTT5=
EXTT6=
EXTT7=
EXTT8=
PLAYORDER=
